<?xml version="1.0" standalone="no"?>
<!DOCTYPE svg PUBLIC "-//W3C//DTD SVG 20010904//EN"
 "http://www.w3.org/TR/2001/REC-SVG-20010904/DTD/svg10.dtd">
<svg version="1.0" xmlns="http://www.w3.org/2000/svg"
 width="512.000000pt" height="512.000000pt" viewBox="0 0 512.000000 512.000000"
 preserveAspectRatio="xMidYMid meet">

<g transform="translate(0.000000,512.000000) scale(0.100000,-0.100000)"
fill="#000000" stroke="none">
<path d="M2435 5113 c-65 -9 -191 -46 -250 -72 -98 -45 -174 -98 -264 -185
-94 -91 -147 -164 -197 -269 -67 -142 -76 -190 -81 -419 l-5 -208 -162 0
c-236 0 -319 -27 -431 -139 -65 -65 -118 -165 -134 -256 -21 -115 -283 -3098
-278 -3165 13 -179 143 -327 336 -384 49 -14 214 -16 1591 -16 1681 0 1574 -4
1694 57 61 31 147 111 181 168 31 54 55 144 55 209 0 72 -268 3060 -281 3131
-24 135 -123 276 -237 338 -83 45 -150 57 -328 57 l-162 0 -4 208 c-4 193 -6
213 -32 292 -56 169 -123 276 -247 395 -142 136 -291 214 -479 249 -76 15
-213 19 -285 9z m280 -288 c233 -59 417 -241 475 -471 16 -61 20 -111 20 -236
l0 -158 -645 0 -645 0 0 158 c0 126 4 175 20 236 58 229 237 408 470 470 73
19 230 20 305 1z m-1075 -1490 c6 -380 4 -370 78 -406 55 -27 101 -19 150 26
l37 33 5 344 5 343 640 0 640 0 5 -340 c6 -379 4 -371 76 -405 49 -24 62 -25
113 -4 76 30 75 27 81 409 l5 340 125 3 c175 4 203 -1 256 -50 23 -22 50 -58
58 -81 11 -29 57 -505 151 -1555 74 -832 135 -1536 135 -1564 0 -46 -4 -54
-43 -93 -25 -25 -58 -47 -82 -54 -57 -16 -2983 -16 -3040 0 -24 7 -57 29 -82
54 -40 40 -43 46 -43 98 0 123 270 3072 285 3113 18 48 80 111 121 124 16 5
94 8 174 7 l145 -2 5 -340z"/>
</g>
</svg>
